<svg xmlns="http://www.w3.org/2000/svg" xmlns:xlink="http://www.w3.org/1999/xlink" width="80" zoomAndPan="magnify" viewBox="0 0 60 60" height="80" preserveAspectRatio="xMidYMid meet" version="1.0"><defs><g/><clipPath id="fb93f8a7ed"><path d="M 3 0 L 57 0 C 58.65625 0 60 1.34375 60 3 L 60 57 C 60 58.65625 58.65625 60 57 60 L 3 60 C 1.34375 60 0 58.65625 0 57 L 0 3 C 0 1.34375 1.34375 0 3 0 Z M 3 0 " clip-rule="nonzero"/></clipPath></defs><rect x="-6" width="72" fill="#ffffff" y="-6" height="72" fill-opacity="1"/><rect x="-6" width="72" fill="#ffffff" y="-6" height="72" fill-opacity="1"/><g clip-path="url(#fb93f8a7ed)"><rect x="-6" width="72" fill="#5e17eb" y="-6" height="72" fill-opacity="1"/></g><g fill="#ffffff" fill-opacity="1"><g transform="translate(25.715902, 46.55558)"><g><path d="M 4.53125 0 L 4.53125 -34.875 L 11.421875 -34.875 L 11.421875 -20.640625 L 12.1875 -20.640625 L 23.828125 -34.875 L 30.890625 -34.875 L 30.890625 -34.28125 L 18.0625 -18.421875 L 32.234375 -0.59375 L 32.234375 0 L 24.4375 0 L 12.1875 -15.046875 L 11.421875 -15.046875 L 11.421875 0 Z M 4.53125 0 "/></g></g></g><g fill="#ffffff" fill-opacity="1"><g transform="translate(1.985935, 36.861391)"><g><path d="M 11.296875 0 L 6.0625 0 L 0.640625 -23.640625 L 5.3125 -23.640625 L 8.875 -7.015625 L 9.28125 -7.015625 L 13.515625 -23.640625 L 17.515625 -23.640625 L 21.828125 -7.015625 L 22.234375 -7.015625 L 25.828125 -23.640625 L 30.328125 -23.640625 L 24.921875 0 L 19.6875 0 L 15.546875 -15.25 L 15.203125 -15.25 Z M 11.296875 0 "/></g></g></g></svg>