<svg xmlns="http://www.w3.org/2000/svg" xmlns:xlink="http://www.w3.org/1999/xlink" width="80" zoomAndPan="magnify" viewBox="0 0 60 60" height="80" preserveAspectRatio="xMidYMid meet" version="1.0"><defs><g/><clipPath id="4f2cd0c88e"><path d="M 3 0 L 57 0 C 58.65625 0 60 1.34375 60 3 L 60 57 C 60 58.65625 58.65625 60 57 60 L 3 60 C 1.34375 60 0 58.65625 0 57 L 0 3 C 0 1.34375 1.34375 0 3 0 Z M 3 0 " clip-rule="nonzero"/></clipPath></defs><rect x="-6" width="72" fill="#ffffff" y="-6" height="72" fill-opacity="1"/><rect x="-6" width="72" fill="#ffffff" y="-6" height="72" fill-opacity="1"/><g clip-path="url(#4f2cd0c88e)"><rect x="-6" width="72" fill="#5e17eb" y="-6" height="72" fill-opacity="1"/></g><g fill="#ffffff" fill-opacity="1"><g transform="translate(2.647696, 45.720053)"><g><path d="M 13.015625 0 L 7 0 L 0.75 -27.265625 L 6.109375 -27.265625 L 10.234375 -8.09375 L 10.703125 -8.09375 L 15.59375 -27.265625 L 20.1875 -27.265625 L 25.171875 -8.09375 L 25.640625 -8.09375 L 29.78125 -27.265625 L 34.96875 -27.265625 L 28.734375 0 L 22.6875 0 L 17.921875 -17.578125 L 17.53125 -17.578125 Z M 13.015625 0 "/></g></g></g><g fill="#ffffff" fill-opacity="1"><g transform="translate(30.698534, 45.720053)"><g><path d="M 3.546875 0 L 3.546875 -27.265625 L 8.9375 -27.265625 L 8.9375 -16.125 L 9.53125 -16.125 L 18.625 -27.265625 L 24.140625 -27.265625 L 24.140625 -26.796875 L 14.109375 -14.390625 L 25.1875 -0.46875 L 25.1875 0 L 19.09375 0 L 9.53125 -11.765625 L 8.9375 -11.765625 L 8.9375 0 Z M 3.546875 0 "/></g></g></g></svg>